<svg width="110" height="110" viewBox="0 0 110 110" fill="none" xmlns="http://www.w3.org/2000/svg">
<rect x="9.5" y="9.5" width="91" height="91" rx="45.5" fill="#1086A0"/>
<path d="M55 0C64.0448 0 72.95 2.23064 80.9268 6.49433C88.9036 10.758 95.7058 16.9232 100.731 24.4436C105.756 31.9641 108.849 40.6078 109.735 49.6091C110.622 58.6103 109.275 67.6913 105.813 76.0476C102.352 84.4039 96.8834 91.7776 89.8916 97.5156C82.8999 103.254 74.601 107.179 65.73 108.943C56.859 110.708 47.6897 110.257 39.0343 107.632C30.379 105.006 22.5048 100.287 16.1091 93.8909L23.1802 86.8198C28.413 92.0526 34.8556 95.9141 41.9372 98.0623C49.0188 100.211 56.521 100.579 63.7791 99.1353C71.0372 97.6916 77.8272 94.4802 83.5477 89.7855C89.2682 85.0908 93.7426 79.0577 96.5746 72.2208C99.4066 65.3838 100.509 57.9539 99.7833 50.5892C99.058 43.2246 96.5275 36.1525 92.4161 29.9993C88.3048 23.8462 82.7393 18.802 76.2129 15.3135C69.6864 11.8251 62.4003 10 55 10" fill="#24A5C1"/>
<mask id="mask0_504_508" style="mask-type:alpha" maskUnits="userSpaceOnUse" x="34" y="35" width="41" height="41">
<rect x="34" y="35" width="40.8547" height="40.8547" fill="#D9D9D9"/>
</mask>
<g mask="url(#mask0_504_508)">
<path d="M54.2146 69.0456C54.3281 69.0456 54.4416 69.0172 54.5551 68.9605C54.6686 68.9037 54.7537 68.847 54.8104 68.7902L68.7691 54.8315C69.1096 54.4911 69.3578 54.1081 69.5139 53.6825C69.6699 53.2569 69.7479 52.8314 69.7479 52.4058C69.7479 51.9519 69.6699 51.5192 69.5139 51.1078C69.3578 50.6964 69.1096 50.3347 68.7691 50.0226L61.5344 42.7879C61.2223 42.4475 60.8606 42.1992 60.4492 42.0432C60.0378 41.8871 59.6052 41.8091 59.1512 41.8091C58.7257 41.8091 58.3001 41.8871 57.8745 42.0432C57.449 42.1992 57.0659 42.4475 56.7255 42.7879L56.2574 43.256L59.4066 46.4478C59.8321 46.845 60.1442 47.299 60.3428 47.8096C60.5414 48.3203 60.6407 48.8594 60.6407 49.4268C60.6407 50.6184 60.2364 51.6185 59.4279 52.4271C58.6193 53.2357 57.6192 53.64 56.4276 53.64C55.8602 53.64 55.314 53.5407 54.7891 53.3421C54.2643 53.1435 53.8032 52.8456 53.406 52.4484L50.2143 49.2991L42.7668 56.7466C42.6817 56.8317 42.6178 56.9239 42.5753 57.0232C42.5327 57.1225 42.5114 57.2289 42.5114 57.3424C42.5114 57.5694 42.5966 57.7751 42.7668 57.9595C42.937 58.1439 43.1356 58.2361 43.3626 58.2361C43.4761 58.2361 43.5896 58.2077 43.703 58.151C43.8165 58.0943 43.9016 58.0375 43.9584 57.9808L49.7461 52.193L52.1293 54.5762L46.3841 60.364C46.299 60.4491 46.2352 60.5413 46.1926 60.6406C46.1501 60.7399 46.1288 60.8463 46.1288 60.9598C46.1288 61.1867 46.2139 61.3853 46.3841 61.5556C46.5544 61.7258 46.753 61.8109 46.9799 61.8109C47.0934 61.8109 47.2069 61.7825 47.3204 61.7258C47.4339 61.669 47.519 61.6123 47.5757 61.5556L53.3635 55.8104L55.7467 58.1936L50.0015 63.9813C49.9164 64.038 49.8525 64.1232 49.81 64.2366C49.7674 64.3501 49.7461 64.4636 49.7461 64.5771C49.7461 64.8041 49.8313 65.0027 50.0015 65.1729C50.1717 65.3431 50.3703 65.4282 50.5973 65.4282C50.7108 65.4282 50.8172 65.407 50.9165 65.3644C51.0158 65.3219 51.108 65.258 51.1931 65.1729L56.9808 59.4277L59.364 61.8109L53.5763 67.5986C53.4912 67.6838 53.4273 67.776 53.3848 67.8753C53.3422 67.9746 53.3209 68.081 53.3209 68.1944C53.3209 68.4214 53.4131 68.62 53.5975 68.7902C53.782 68.9605 53.9877 69.0456 54.2146 69.0456ZM54.1721 72.4501C53.1223 72.4501 52.1932 72.1026 51.3846 71.4075C50.576 70.7124 50.1008 69.84 49.9589 68.7902C48.9943 68.6484 48.1857 68.2512 47.5332 67.5986C46.8806 66.9461 46.4834 66.1375 46.3416 65.1729C45.377 65.031 44.5755 64.6268 43.9371 63.96C43.2988 63.2933 42.9086 62.4918 42.7668 61.5556C41.6887 61.4137 40.8092 60.9456 40.1283 60.1512C39.4473 59.3568 39.1069 58.4205 39.1069 57.3424C39.1069 56.775 39.2133 56.2288 39.4261 55.704C39.6388 55.1791 39.9438 54.7181 40.341 54.3209L50.2143 44.4902L55.7892 50.0652C55.846 50.1503 55.9311 50.2141 56.0446 50.2567C56.1581 50.2992 56.2715 50.3205 56.385 50.3205C56.6404 50.3205 56.8532 50.2425 57.0234 50.0864C57.1936 49.9304 57.2787 49.7247 57.2787 49.4694C57.2787 49.3559 57.2575 49.2424 57.2149 49.1289C57.1723 49.0154 57.1085 48.9303 57.0234 48.8736L50.9377 42.7879C50.6256 42.4475 50.2639 42.1992 49.8525 42.0432C49.4411 41.8871 49.0085 41.8091 48.5545 41.8091C48.129 41.8091 47.7034 41.8871 47.2778 42.0432C46.8523 42.1992 46.4692 42.4475 46.1288 42.7879L40.1283 48.831C39.8729 49.0864 39.6601 49.3842 39.4899 49.7247C39.3197 50.0652 39.2062 50.4056 39.1494 50.7461C39.0927 51.0865 39.0927 51.4341 39.1494 51.7887C39.2062 52.1434 39.3197 52.4767 39.4899 52.7888L37.0216 55.2571C36.5393 54.6046 36.1846 53.8882 35.9577 53.108C35.7307 52.3278 35.6456 51.5405 35.7023 50.7461C35.7591 49.9517 35.9577 49.1786 36.2981 48.4267C36.6386 47.6749 37.1067 47.0011 37.7025 46.4053L43.703 40.4047C44.384 39.7522 45.1429 39.2557 45.9798 38.9152C46.8168 38.5748 47.675 38.4045 48.5545 38.4045C49.4341 38.4045 50.2923 38.5748 51.1292 38.9152C51.9662 39.2557 52.7109 39.7522 53.3635 40.4047L53.8316 40.8728L54.2997 40.4047C54.9806 39.7522 55.7396 39.2557 56.5765 38.9152C57.4135 38.5748 58.2717 38.4045 59.1512 38.4045C60.0307 38.4045 60.889 38.5748 61.7259 38.9152C62.5629 39.2557 63.3076 39.7522 63.9602 40.4047L71.1523 47.5969C71.8049 48.2494 72.3014 49.0012 72.6418 49.8524C72.9823 50.7035 73.1525 51.5688 73.1525 52.4484C73.1525 53.3279 72.9823 54.1861 72.6418 55.0231C72.3014 55.86 71.8049 56.6048 71.1523 57.2573L57.1936 71.1734C56.7964 71.5706 56.3354 71.8827 55.8105 72.1097C55.2856 72.3367 54.7395 72.4501 54.1721 72.4501Z" fill="white"/>
</g>
</svg>
