<svg width="110" height="110" viewBox="0 0 110 110" fill="none" xmlns="http://www.w3.org/2000/svg">
<g clip-path="url(#clip0_504_475)">
<path d="M55 0C69.5869 0 83.5764 5.79463 93.8909 16.1091C104.205 26.4236 110 40.4131 110 55C110 69.5869 104.205 83.5764 93.8909 93.8909C83.5764 104.205 69.5869 110 55 110V100C66.9347 100 78.3807 95.2589 86.8198 86.8198C95.2589 78.3807 100 66.9347 100 55C100 43.0653 95.2589 31.6193 86.8198 23.1802C78.3807 14.7411 66.9347 10 55 10" fill="#A7A7A7"/>
<path d="M55 110C40.4131 110 26.4236 104.205 16.1091 93.8909C5.79463 83.5764 0 69.5869 0 55C0 40.4131 5.79463 26.4236 16.1091 16.1091C26.4236 5.79463 40.4131 0 55 0V10C43.0653 10 31.6193 14.7411 23.1802 23.1802C14.7411 31.6193 10 43.0653 10 55C10 66.9347 14.7411 78.3807 23.1802 86.8198C31.6193 95.2589 43.0653 100 55 100" fill="white"/>
</g>
<defs>
<clipPath id="clip0_504_475">
<rect width="110" height="110" fill="white"/>
</clipPath>
</defs>
</svg>
