<svg width="110" height="110" viewBox="0 0 110 110" fill="none" xmlns="http://www.w3.org/2000/svg">
<rect x="9.5" y="9.5" width="91" height="91" rx="45.5" fill="black"/>
<g clip-path="url(#clip0_504_473)">
<path d="M55 0C69.5869 0 83.5764 5.79463 93.8909 16.1091C104.205 26.4236 110 40.4131 110 55C110 69.5869 104.205 83.5764 93.8909 93.8909C83.5764 104.205 69.5869 110 55 110V100C66.9347 100 78.3807 95.2589 86.8198 86.8198C95.2589 78.3807 100 66.9347 100 55C100 43.0653 95.2589 31.6193 86.8198 23.1802C78.3807 14.7411 66.9347 10 55 10" fill="#A7A7A7"/>
<path d="M55 110C40.4131 110 26.4236 104.205 16.1091 93.8909C5.79463 83.5764 0 69.5869 0 55C0 40.4131 5.79463 26.4236 16.1091 16.1091C26.4236 5.79463 40.4131 0 55 0V10C43.0653 10 31.6193 14.7411 23.1802 23.1802C14.7411 31.6193 10 43.0653 10 55C10 66.9347 14.7411 78.3807 23.1802 86.8198C31.6193 95.2589 43.0653 100 55 100" fill="white"/>
</g>
<mask id="mask0_504_473" style="mask-type:alpha" maskUnits="userSpaceOnUse" x="34" y="34" width="41" height="41">
<rect x="34" y="34" width="40.8547" height="40.8547" fill="#D9D9D9"/>
</mask>
<g mask="url(#mask0_504_473)">
<path d="M45.0648 52.7251L54.4274 37.4045L63.7899 52.7251H45.0648ZM63.7899 71.4501C61.6621 71.4501 59.8534 70.7054 58.3639 69.2159C56.8744 67.7264 56.1296 65.9177 56.1296 63.7899C56.1296 61.662 56.8744 59.8534 58.3639 58.3639C59.8534 56.8744 61.6621 56.1296 63.7899 56.1296C65.9178 56.1296 67.7264 56.8744 69.2159 58.3639C70.7054 59.8534 71.4502 61.662 71.4502 63.7899C71.4502 65.9177 70.7054 67.7264 69.2159 69.2159C67.7264 70.7054 65.9178 71.4501 63.7899 71.4501ZM39.1068 70.599V56.9808H52.7251V70.599H39.1068ZM63.7899 68.0456C64.9815 68.0456 65.9887 67.6342 66.8115 66.8114C67.6342 65.9887 68.0456 64.9815 68.0456 63.7899C68.0456 62.5983 67.6342 61.5911 66.8115 60.7683C65.9887 59.9456 64.9815 59.5342 63.7899 59.5342C62.5983 59.5342 61.5911 59.9456 60.7684 60.7683C59.9456 61.5911 59.5342 62.5983 59.5342 63.7899C59.5342 64.9815 59.9456 65.9887 60.7684 66.8114C61.5911 67.6342 62.5983 68.0456 63.7899 68.0456ZM42.5114 67.1944H49.3205V60.3853H42.5114V67.1944ZM51.1079 49.3205H57.7468L54.4274 43.9583L51.1079 49.3205Z" fill="white"/>
</g>
<defs>
<clipPath id="clip0_504_473">
<rect width="110" height="110" fill="white"/>
</clipPath>
</defs>
</svg>
