<svg width="110" height="110" viewBox="0 0 110 110" fill="none" xmlns="http://www.w3.org/2000/svg">
<rect x="9.5" y="9.5" width="91" height="91" rx="45.5" fill="#A82646"/>
<g clip-path="url(#clip0_504_486)">
<path d="M55 0C65.878 0 76.5117 3.22569 85.5564 9.26917C94.6011 15.3126 101.651 23.9025 105.813 33.9524C109.976 44.0023 111.065 55.061 108.943 65.73C106.821 76.3989 101.583 86.199 93.8909 93.8909L86.8198 86.8198C93.1132 80.5264 97.399 72.5082 99.1353 63.7791C100.872 55.0499 99.9805 46.0019 96.5746 37.7792C93.1686 29.5566 87.4009 22.5285 80.0007 17.5839C72.6005 12.6392 63.9002 10 55 10" fill="#BB7083"/>
<path d="M93.8909 93.8909C87.4952 100.287 79.621 105.006 70.9657 107.632C62.3103 110.257 53.1411 110.708 44.27 108.943C35.399 107.179 27.1001 103.254 20.1084 97.5156C13.1167 91.7776 7.64794 84.4039 4.18664 76.0476C0.725343 67.6913 -0.621692 58.6103 0.264854 49.6091C1.1514 40.6078 4.24416 31.9641 9.26919 24.4436C14.2942 16.9232 21.0964 10.758 29.0732 6.49433C37.05 2.23064 45.9552 0 55 0V10C47.5997 10 40.3136 11.8251 33.7872 15.3135C27.2607 18.802 21.6953 23.8462 17.5839 29.9993C13.4725 36.1525 10.9421 43.2246 10.2167 50.5892C9.49135 57.9539 10.5935 65.3838 13.4254 72.2208C16.2574 79.0577 20.7318 85.0908 26.4523 89.7855C32.1728 94.4802 38.9629 97.6916 46.221 99.1353C53.479 100.579 60.9812 100.211 68.0628 98.0623C75.1445 95.9141 81.587 92.0526 86.8198 86.8198" fill="white"/>
<mask id="mask0_504_486" style="mask-type:alpha" maskUnits="userSpaceOnUse" x="35" y="35" width="41" height="41">
<rect x="35" y="35" width="40.8547" height="40.8547" fill="#D9D9D9"/>
</mask>
<g mask="url(#mask0_504_486)">
<path d="M41.8092 70.748C40.8729 70.748 40.0714 70.4146 39.4047 69.7479C38.738 69.0812 38.4046 68.2797 38.4046 67.3434V43.5115C38.4046 42.5752 38.738 41.7737 39.4047 41.107C40.0714 40.4403 40.8729 40.1069 41.8092 40.1069H69.0456C69.9819 40.1069 70.7834 40.4403 71.4501 41.107C72.1168 41.7737 72.4502 42.5752 72.4502 43.5115V67.3434C72.4502 68.2797 72.1168 69.0812 71.4501 69.7479C70.7834 70.4146 69.9819 70.748 69.0456 70.748H41.8092ZM41.8092 67.3434H69.0456V43.5115H41.8092V67.3434ZM43.5114 63.9389H52.0228V60.5343H43.5114V63.9389ZM59.7682 60.5343L68.1945 52.108L65.7688 49.6823L59.7682 55.7254L57.3425 53.2996L54.9593 55.7254L59.7682 60.5343ZM43.5114 57.1297H52.0228V53.7252H43.5114V57.1297ZM43.5114 50.3206H52.0228V46.9161H43.5114V50.3206Z" fill="white"/>
</g>
</g>
<defs>
<clipPath id="clip0_504_486">
<rect width="110" height="110" fill="white"/>
</clipPath>
</defs>
</svg>
