<svg width="110" height="110" viewBox="0 0 110 110" fill="none" xmlns="http://www.w3.org/2000/svg">
<rect x="9.5" y="9.5" width="91" height="91" rx="45.5" fill="#AC7D52"/>
<g clip-path="url(#clip0_504_497)">
<path d="M55 0C64.0448 0 72.95 2.23064 80.9268 6.49433C88.9036 10.758 95.7058 16.9232 100.731 24.4436C105.756 31.9641 108.849 40.6078 109.735 49.6091C110.622 58.6103 109.275 67.6913 105.813 76.0476C102.352 84.4039 96.8834 91.7776 89.8916 97.5156C82.8999 103.254 74.601 107.179 65.73 108.943C56.859 110.708 47.6897 110.257 39.0343 107.632C30.379 105.006 22.5048 100.287 16.1091 93.8909L23.1802 86.8198C28.413 92.0526 34.8556 95.9141 41.9372 98.0623C49.0188 100.211 56.521 100.579 63.7791 99.1353C71.0372 97.6916 77.8272 94.4802 83.5477 89.7855C89.2682 85.0908 93.7426 79.0577 96.5746 72.2208C99.4066 65.3838 100.509 57.9539 99.7833 50.5892C99.058 43.2246 96.5275 36.1525 92.4161 29.9993C88.3048 23.8462 82.7393 18.802 76.2129 15.3135C69.6864 11.8251 62.4003 10 55 10" fill="#CD894A"/>
<path d="M16.1092 93.8909C8.41726 86.199 3.17902 76.3989 1.05683 65.73C-1.06535 55.061 0.0238304 44.0023 4.18665 33.9524C8.34947 23.9025 15.399 15.3126 24.4437 9.26917C33.4884 3.22569 44.1221 0 55 0V10C46.0999 10 37.3996 12.6392 29.9994 17.5839C22.5992 22.5285 16.8314 29.5566 13.4254 37.7792C10.0195 46.0019 9.12835 55.0499 10.8647 63.7791C12.601 72.5082 16.8869 80.5264 23.1802 86.8198" fill="white"/>
<mask id="mask0_504_497" style="mask-type:alpha" maskUnits="userSpaceOnUse" x="35" y="35" width="41" height="41">
<rect x="35" y="35" width="40.8547" height="40.8547" fill="#D9D9D9"/>
</mask>
<g mask="url(#mask0_504_497)">
<path d="M45.2137 72.4501V65.1303C43.5965 63.655 42.3411 61.9315 41.4474 59.9597C40.5537 57.9879 40.1068 55.9097 40.1068 53.7251C40.1068 49.4694 41.5963 45.852 44.5753 42.873C47.5543 39.894 51.1716 38.4045 55.4273 38.4045C58.9738 38.4045 62.1159 39.4472 64.8537 41.5325C67.5915 43.6178 69.3719 46.3343 70.1946 49.6821L72.4076 58.4063C72.5494 58.9454 72.4501 59.4348 72.1097 59.8746C71.7692 60.3143 71.3153 60.5342 70.7479 60.5342H67.3433V65.641C67.3433 66.5773 67.0099 67.3788 66.3432 68.0455C65.6765 68.7122 64.875 69.0456 63.9387 69.0456H60.5342V72.4501H57.1296V65.641H63.9387V57.1296H68.5349L66.9177 50.5333C66.2652 47.9515 64.875 45.852 62.7471 44.2349C60.6193 42.6177 58.1794 41.8091 55.4273 41.8091C52.1363 41.8091 49.3275 42.9581 47.001 45.2562C44.6746 47.5543 43.5114 50.3489 43.5114 53.64C43.5114 55.3422 43.8589 56.9594 44.554 58.4914C45.2491 60.0235 46.235 61.3853 47.5117 62.5769L48.6182 63.5983V72.4501H45.2137ZM55.4273 62.2365C55.9096 62.2365 56.3139 62.0733 56.6402 61.7471C56.9665 61.4208 57.1296 61.0165 57.1296 60.5342C57.1296 60.0519 56.9665 59.6476 56.6402 59.3213C56.3139 58.995 55.9096 58.8319 55.4273 58.8319C54.945 58.8319 54.5407 58.995 54.2145 59.3213C53.8882 59.6476 53.7251 60.0519 53.7251 60.5342C53.7251 61.0165 53.8882 61.4208 54.2145 61.7471C54.5407 62.0733 54.945 62.2365 55.4273 62.2365ZM54.1506 56.7892H56.7466C56.7466 56.0799 56.8388 55.5054 57.0232 55.0656C57.2076 54.6259 57.5836 54.0939 58.151 53.4697C58.6617 52.9023 59.1582 52.3278 59.6405 51.7462C60.1228 51.1646 60.3639 50.4056 60.3639 49.4694C60.3639 48.2778 59.9029 47.2706 58.9808 46.4478C58.0588 45.625 56.9168 45.2137 55.555 45.2137C54.4202 45.2137 53.3917 45.5399 52.4696 46.1925C51.5476 46.845 50.9021 47.6962 50.5333 48.7459L52.8739 49.7247C53.0725 49.1005 53.4201 48.5969 53.9166 48.2139C54.4131 47.8309 54.9592 47.6394 55.555 47.6394C56.1792 47.6394 56.697 47.8096 57.1083 48.1501C57.5197 48.4906 57.7254 48.9303 57.7254 49.4694C57.7254 50.0652 57.5481 50.5971 57.1935 51.0653C56.8388 51.5334 56.4203 52.0086 55.938 52.4909C55.3706 53.0867 54.9308 53.6825 54.6188 54.2783C54.3067 54.8741 54.1506 55.7111 54.1506 56.7892Z" fill="white"/>
</g>
</g>
<defs>
<clipPath id="clip0_504_497">
<rect width="110" height="110" fill="white"/>
</clipPath>
</defs>
</svg>
